<?xml version="1.0" encoding="UTF-8" standalone="no"?>
<svg
   xmlns:dc="http://purl.org/dc/elements/1.1/"
   xmlns:cc="http://creativecommons.org/ns#"
   xmlns:rdf="http://www.w3.org/1999/02/22-rdf-syntax-ns#"
   xmlns:svg="http://www.w3.org/2000/svg"
   xmlns="http://www.w3.org/2000/svg"
   xmlns:sodipodi="http://sodipodi.sourceforge.net/DTD/sodipodi-0.dtd"
   xmlns:inkscape="http://www.inkscape.org/namespaces/inkscape"
   height="24"
   version="1.1"
   width="24"
   id="svg40"
   sodipodi:docname="applicationIcon.svg"
   inkscape:version="0.92.3 (2405546, 2018-03-11)">
  <metadata
     id="metadata46">
    <rdf:RDF>
      <cc:Work
         rdf:about="">
        <dc:format>image/svg+xml</dc:format>
        <dc:type
           rdf:resource="http://purl.org/dc/dcmitype/StillImage" />
        <dc:title></dc:title>
      </cc:Work>
    </rdf:RDF>
  </metadata>
  <defs
     id="defs44" />
  <sodipodi:namedview
     pagecolor="#ffffff"
     bordercolor="#666666"
     borderopacity="1"
     objecttolerance="10"
     gridtolerance="10"
     guidetolerance="10"
     inkscape:pageopacity="0"
     inkscape:pageshadow="2"
     inkscape:window-width="1920"
     inkscape:window-height="1015"
     id="namedview42"
     showgrid="false"
     inkscape:zoom="9.8333333"
     inkscape:cx="-3.0508475"
     inkscape:cy="12"
     inkscape:window-x="0"
     inkscape:window-y="0"
     inkscape:window-maximized="1"
     inkscape:current-layer="layer1" />
  <g
     transform="translate(0 -1028.4)"
     id="g38">
    <path
       d="m3 1043.4v2.9 0.4 0.1c-0.0039 0 0 0 0 0.1 0 2.4 4.0294 4.5 9 4.5 4.971 0 9-2.1 9-4.5v-0.2-0.3-3h-18z"
       fill="#95a5a6"
       id="path2" />
    <path
       d="m21 5a9 4 0 1 1 -18 0 9 4 0 1 1 18 0z"
       fill="#bdc3c7"
       transform="translate(0 1038.4)"
       id="path4" />
    <path
       d="m3.0625 1046.9c-0.046 0.1-0.0625 0.3-0.0625 0.5 0 2.2 4.0294 4 9 4 4.971 0 9-1.8 9-4 0-0.2-0.017-0.4-0.062-0.5-0.554 1.9-4.349 3.5-8.938 3.5-4.5894 0-8.3837-1.6-8.9375-3.5z"
       fill="#7f8c8d"
       id="path6" />
    <path
       d="m3 1038.4v2.9 0.4 0.1c-0.0039 0 0 0 0 0.1 0 2.4 4.0294 4.5 9 4.5 4.971 0 9-2.1 9-4.5v-0.2-0.3-3h-18z"
       fill="#95a5a6"
       id="path8" />
    <path
       d="m21 5a9 4 0 1 1 -18 0 9 4 0 1 1 18 0z"
       fill="#bdc3c7"
       transform="translate(0 1033.4)"
       id="path10" />
    <path
       d="m3.0625 1041.9c-0.046 0.1-0.0625 0.3-0.0625 0.5 0 2.2 4.0294 4 9 4 4.971 0 9-1.8 9-4 0-0.2-0.017-0.4-0.062-0.5-0.554 1.9-4.349 3.5-8.938 3.5-4.5894 0-8.3837-1.6-8.9375-3.5z"
       fill="#7f8c8d"
       id="path12" />
    <path
       d="m3 1033.4v2.9 0.4 0.1c-0.0039 0 0 0 0 0.1 0 2.4 4.0294 4.5 9 4.5 4.971 0 9-2.1 9-4.5v-0.2-0.3-3h-18z"
       fill="#95a5a6"
       id="path14" />
    <path
       d="m3.0625 1036.9c-0.046 0.1-0.0625 0.3-0.0625 0.5 0 2.2 4.0294 4 9 4 4.971 0 9-1.8 9-4 0-0.2-0.017-0.4-0.062-0.5-0.554 1.9-4.349 3.5-8.938 3.5-4.5894 0-8.3837-1.6-8.9375-3.5z"
       fill="#7f8c8d"
       id="path16" />
    <path
       d="m12 1043.4v8c4.971 0 9-2.1 9-4.5v-0.2-0.3-3h-9z"
       fill="#bdc3c7"
       id="path18" />
    <g
       transform="translate(0,5)"
       id="g26">
      <path
         d="m12 6v8c4.971 0 9-1.791 9-4 0-2.2091-4.029-4-9-4z"
         fill="#ecf0f1"
         transform="translate(0 1028.4)"
         id="path20" />
      <path
         d="m12 5v8c4.971 0 9-2.015 9-4.5v-0.1875-0.3125-3h-9z"
         fill="#bdc3c7"
         transform="translate(0 1028.4)"
         id="path22" />
      <path
         d="m20.938 8.5c-0.554 1.973-4.349 3.5-8.938 3.5v1c4.971 0 9-1.791 9-4 0-0.1694-0.017-0.3362-0.062-0.5z"
         fill="#95a5a6"
         transform="translate(0 1028.4)"
         id="path24" />
    </g>
    <path
       d="m12 6v8c4.971 0 9-1.791 9-4 0-2.2091-4.029-4-9-4z"
       fill="#ecf0f1"
       transform="translate(0 1028.4)"
       id="path28" />
    <path
       d="m12 5v8c4.971 0 9-2.015 9-4.5v-0.1875-0.3125-3h-9z"
       fill="#bdc3c7"
       transform="translate(0 1028.4)"
       id="path30" />
    <path
       d="m20.938 8.5c-0.554 1.973-4.349 3.5-8.938 3.5v1c4.971 0 9-1.791 9-4 0-0.1694-0.017-0.3362-0.062-0.5z"
       fill="#95a5a6"
       transform="translate(0 1028.4)"
       id="path32" />
    <path
       d="m20.938 1046.9c-0.554 1.9-4.349 3.5-8.938 3.5v1c4.971 0 9-1.8 9-4 0-0.2-0.017-0.4-0.062-0.5z"
       fill="#95a5a6"
       id="path34" />
    <path
       d="m21 5a9 4 0 1 1 -18 0 9 4 0 1 1 18 0z"
       fill="#bdc3c7"
       transform="translate(0 1028.4)"
       id="path36" />
  </g>
  <g
     inkscape:groupmode="layer"
     id="layer2"
     inkscape:label="Kenwood Logo"
     style="display:inline">
    <path
       sodipodi:type="star"
       style="fill:#d40000;fill-opacity:1"
       id="path4585"
       sodipodi:sides="3"
       sodipodi:cx="-36.915257"
       sodipodi:cy="1.6271188"
       sodipodi:r1="10.000745"
       sodipodi:r2="3.2135603"
       sodipodi:arg1="1.5707963"
       sodipodi:arg2="2.6179939"
       inkscape:flatsided="true"
       inkscape:rounded="0"
       inkscape:randomized="0"
       d="m -36.915256,11.627864 -8.6609,-15.0011174 17.321798,-4e-7 z"
       inkscape:transform-center-x="-0.2805805"
       inkscape:transform-center-y="0.11087594"
       transform="matrix(0.63774478,0,0,0.25421834,35.541646,4.2135233)" />
  </g>
  <g
     inkscape:groupmode="layer"
     id="layer1"
     inkscape:label="Note"
     style="display:inline">
    <g
       transform="matrix(0.21114315,0,0,0.21114315,10.889321,4.0678447)"
       id="g4"
       style="fill:#2851a3;fill-opacity:1">
      <path
         inkscape:connector-curvature="0"
         d="M 37.992,0 H 29.971 V 65.358 C 25.536,63.652 19.797,63.628 14.136,65.686 3.994,69.377 -2.049,78.355 0.638,85.736 3.326,93.119 13.726,96.11 23.867,92.419 32.481,89.285 38.116,82.337 37.978,75.793 l 0.014,-53.451 c 13.986,2.204 14.943,19.884 13.268,24.842 -0.636,1.879 0.484,3.286 2.598,0 C 68.938,23.726 37.992,13.376 37.992,0 Z"
         id="path2-3"
         style="fill:#2851a3;fill-opacity:1" />
    </g>
  </g>
</svg>
